<svg xmlns="http://www.w3.org/2000/svg" viewBox="0 0 100 100">
  <defs>
    <linearGradient id="bgGrad" x1="0%" y1="0%" x2="100%" y2="100%">
      <stop offset="0%" style="stop-color:#1E40AF"/>
      <stop offset="100%" style="stop-color:#F97316"/>
    </linearGradient>
  </defs>
  <!-- Background -->
  <rect width="100" height="100" rx="20" fill="url(#bgGrad)"/>
  <!-- Car Icon -->
  <path d="M75 55H72L67 40C66 37 63 35 60 35H40C37 35 34 37 33 40L28 55H25C23 55 21 57 21 59V65C21 67 23 69 25 69H27C27 74 31 78 36 78C41 78 45 74 45 69H55C55 74 59 78 64 78C69 78 73 74 73 69H75C77 69 79 67 79 65V59C79 57 77 55 75 55ZM36 73C33.5 73 31.5 71 31.5 68.5C31.5 66 33.5 64 36 64C38.5 64 40.5 66 40.5 68.5C40.5 71 38.5 73 36 73ZM64 73C61.5 73 59.5 71 59.5 68.5C59.5 66 61.5 64 64 64C66.5 64 68.5 66 68.5 68.5C68.5 71 66.5 73 64 73ZM35 52L38.5 40.5C39 39 40.5 38 42 38H58C59.5 38 61 39 61.5 40.5L65 52H35Z" fill="white"/>
</svg>

